<svg width="125" height="125" viewBox="0 0 125 125" fill="none" xmlns="http://www.w3.org/2000/svg">
<g clip-path="url(#clip0)">
<path d="M20.77 111.067C20.3162 110.613 19.6863 110.352 19.0442 110.352C18.4021 110.352 17.7722 110.613 17.3181 111.067C16.864 111.521 16.6028 112.151 16.6028 112.793C16.6028 113.435 16.8638 114.065 17.3181 114.519C17.7722 114.973 18.4021 115.235 19.0442 115.235C19.6863 115.235 20.3162 114.973 20.77 114.519C21.2241 114.065 21.4856 113.435 21.4856 112.793C21.4856 112.151 21.2244 111.521 20.77 111.067Z" fill="#1F70C1"/>
<path d="M114.63 44.6625C114.176 44.2081 113.548 43.9471 112.904 43.9471C112.261 43.9471 111.632 44.2081 111.177 44.6625C110.724 45.1166 110.462 45.7465 110.462 46.3885C110.462 47.0306 110.723 47.6605 111.177 48.1144C111.632 48.5685 112.261 48.83 112.904 48.83C113.548 48.83 114.176 48.5687 114.63 48.1144C115.086 47.6605 115.347 47.0306 115.347 46.3885C115.347 45.7465 115.086 45.1166 114.63 44.6625Z" fill="#1F70C1"/>
<path d="M124.282 0.715088C123.824 0.257324 123.203 0 122.555 0L62.4983 0.00317383C61.1502 0.00317383 60.0571 1.09644 60.0571 2.44458V9.42627L36.9153 15.6272C35.6128 15.9763 34.8398 17.3149 35.189 18.6172L47.1829 63.3784L36.8071 73.7542C35.4866 71.8259 33.2693 70.5579 30.7612 70.5579H7.32446C3.28589 70.5579 0.000488281 73.8435 0.000488281 77.8818V117.676C0.000488281 121.714 3.28589 125 7.32446 125H30.7615C34.1924 125 37.0786 122.628 37.8696 119.438L40.7725 121.97C43.0134 123.924 45.8845 125 48.8579 125H122.556C123.904 125 124.997 123.907 124.997 122.559V2.44141C124.997 1.79395 124.74 1.17285 124.282 0.715088ZM33.2024 117.676C33.2024 119.022 32.1072 120.117 30.761 120.117H7.32422C5.97803 120.117 4.88281 119.022 4.88281 117.676V77.8821C4.88281 76.5359 5.97803 75.4407 7.32422 75.4407H16.6013V103.564C16.6013 104.913 17.6946 106.006 19.0427 106.006C20.3909 106.006 21.4841 104.913 21.4841 103.564V75.4407H30.7612C32.1074 75.4407 33.2026 76.5359 33.2026 77.8821V117.676H33.2024ZM40.5371 19.7117L60.0571 14.4812V23.5278L58.4209 23.9663C57.7952 24.134 57.2622 24.543 56.9385 25.1038C56.6147 25.6646 56.5269 26.3308 56.6946 26.9563C57.6328 30.4575 55.5476 34.0691 52.0464 35.0073C51.4202 35.1753 50.8862 35.585 50.5627 36.147C50.2393 36.7087 50.1521 37.3762 50.3213 38.0022L59.8377 73.241H54.9377L52.4126 63.3621C52.3323 63.0476 52.1917 62.7578 52.0034 62.5059L40.5371 19.7117ZM60.0571 34.7239V55.3247L55.6042 38.8367C57.4644 37.8762 58.9866 36.4392 60.0571 34.7239ZM95.1314 120.117H48.8574C47.0642 120.117 45.3325 119.468 43.981 118.29L38.0852 113.148V79.3816L48.7439 68.7229L50.677 76.2864C50.9534 77.3672 51.9268 78.123 53.0422 78.123L101.041 78.126C102.926 78.126 104.459 79.6592 104.459 81.5439C104.459 83.4287 102.926 84.9619 101.041 84.9619H76.4465C75.0984 84.9619 74.0051 86.0552 74.0051 87.4033C74.0051 88.7515 75.0984 89.8447 76.4465 89.8447H108.683C110.568 89.8447 112.101 91.3779 112.101 93.2627C112.101 95.1475 110.568 96.6807 108.683 96.6807H76.4465C75.0984 96.6807 74.0051 97.7739 74.0051 99.1221C74.0051 100.47 75.0984 101.563 76.4465 101.563H103.459C105.344 101.563 106.877 103.097 106.877 104.981C106.877 106.866 105.344 108.399 103.459 108.399H76.4465C75.0984 108.399 74.0051 109.493 74.0051 110.841C74.0051 112.189 75.0984 113.282 76.4465 113.282H95.1314C97.0161 113.282 98.5493 114.815 98.5493 116.7C98.5491 118.584 97.0159 120.117 95.1314 120.117ZM120.115 120.117H120.114H102.693C103.166 119.074 103.432 117.917 103.432 116.699C103.432 115.481 103.166 114.324 102.693 113.281H103.459C108.036 113.281 111.76 109.558 111.76 104.981C111.76 103.646 111.441 102.384 110.878 101.266C114.393 100.3 116.983 97.0789 116.983 93.2622C116.983 91.4106 116.373 89.699 115.345 88.3171V57.3748C115.345 56.0266 114.251 54.9333 112.903 54.9333C111.555 54.9333 110.462 56.0266 110.462 57.3748V85.156C109.888 85.0303 109.293 84.9619 108.682 84.9619H108.602C109.076 83.9187 109.342 82.7622 109.342 81.5439C109.342 76.9668 105.618 73.2434 101.041 73.2434H97.1165C101.284 71.4563 104.21 67.3142 104.21 62.5C104.21 56.0574 98.9692 50.8159 92.5266 50.8159C86.0842 50.8159 80.8428 56.0574 80.8428 62.5C80.8428 67.3142 83.7698 71.4563 87.9368 73.2434H74.5913V26.822C78.9526 25.8716 82.3941 22.4304 83.3442 18.0688H101.709C102.659 22.4304 106.1 25.8716 110.462 26.822V34.4124C110.462 35.7605 111.555 36.8538 112.903 36.8538C114.251 36.8538 115.344 35.7605 115.344 34.4124V24.6423C115.344 23.2942 114.251 22.2009 112.903 22.2009C109.278 22.2009 106.33 19.252 106.33 15.6274C106.33 14.2793 105.237 13.186 103.888 13.186H81.1648C79.8167 13.186 78.7234 14.2793 78.7234 15.6274C78.7234 19.2522 75.7747 22.2009 72.1502 22.2009C70.802 22.2009 69.7087 23.2942 69.7087 24.6423V73.2432H64.9402V4.8855L120.115 4.88281V120.117ZM92.5271 69.3013C88.7769 69.3013 85.7261 66.2502 85.7261 62.5002C85.7261 58.7502 88.7771 55.699 92.5271 55.699C96.2771 55.699 99.3281 58.75 99.3281 62.5C99.3281 66.25 96.2774 69.3013 92.5271 69.3013Z" fill="#1F70C1"/>
</g>
<defs>
<clipPath id="clip0">
<rect width="125" height="125" fill="white"/>
</clipPath>
</defs>
</svg>
