<svg width="30" height="41" viewBox="0 0 30 41" fill="none" xmlns="http://www.w3.org/2000/svg">
<g clip-path="url(#clip0)">
<path d="M13.4584 39.5698C2.10703 22.9554 0 21.2503 0 15.1442C0 6.78028 6.7157 0 15 0C23.2843 0 30 6.78028 30 15.1442C30 21.2503 27.893 22.9554 16.5416 39.5698C15.7966 40.6563 14.2033 40.6562 13.4584 39.5698ZM15 21.4543C18.4518 21.4543 21.25 18.6292 21.25 15.1442C21.25 11.6592 18.4518 8.83414 15 8.83414C11.5482 8.83414 8.75 11.6592 8.75 15.1442C8.75 18.6292 11.5482 21.4543 15 21.4543Z" fill="white"/>
</g>
<defs>
<clipPath id="clip0">
<rect width="30" height="40.3846" fill="white"/>
</clipPath>
</defs>
</svg>
