<svg width="44" height="44" viewBox="0 0 44 44" fill="none" xmlns="http://www.w3.org/2000/svg">
<path d="M43.1664 15.8969C43.5016 15.6305 44 15.8797 44 16.3008V33.875C44 36.1523 42.1523 38 39.875 38H4.125C1.84766 38 0 36.1523 0 33.875V16.3094C0 15.8797 0.489844 15.6391 0.833594 15.9055C2.75859 17.4008 5.31094 19.3 14.0766 25.668C15.8898 26.9914 18.9492 29.7758 22 29.7586C25.068 29.7844 28.1875 26.9398 29.932 25.668C38.6977 19.3 41.2414 17.3922 43.1664 15.8969ZM22 27C23.9938 27.0344 26.8641 24.4906 28.3078 23.4422C39.7117 15.1664 40.5797 14.4445 43.2094 12.382C43.7078 11.9953 44 11.3938 44 10.7578V9.125C44 6.84766 42.1523 5 39.875 5H4.125C1.84766 5 0 6.84766 0 9.125V10.7578C0 11.3938 0.292187 11.9867 0.790625 12.382C3.42031 14.4359 4.28828 15.1664 15.6922 23.4422C17.1359 24.4906 20.0062 27.0344 22 27Z" fill="#656565"/>
</svg>
