<svg width="125" height="125" viewBox="0 0 125 125" fill="none" xmlns="http://www.w3.org/2000/svg">
<path d="M42.8364 24.8684C39.0237 26.3086 36.2919 29.9657 36.2919 34.2755C36.2919 35.9352 36.734 37.4798 37.4477 38.8629C34.4235 40.0255 32.2598 42.9413 32.2598 46.372C32.2598 49.8037 34.4235 52.7186 37.4477 53.8822C36.734 55.2653 36.2919 56.8098 36.2919 58.4686C36.2919 62.7794 39.0237 66.4365 42.8364 67.8757C42.5342 68.7203 42.3402 69.6181 42.3402 70.5651C42.3402 75.0127 45.957 78.6295 50.4046 78.6295C51.4087 78.6295 52.3606 78.4218 53.2476 78.0871C54.5539 80.7834 57.2936 82.6617 60.485 82.6617C64.9326 82.6617 68.5494 79.0449 68.5494 74.5973V18.1468C68.5494 13.7001 64.9326 10.0824 60.485 10.0824C57.2936 10.0824 54.5539 11.9617 53.2476 14.657C52.3606 14.3223 51.4087 14.1146 50.4046 14.1146C45.957 14.1146 42.3402 17.7323 42.3402 22.1789C42.3402 23.1269 42.5342 24.0237 42.8364 24.8684ZM50.4046 18.1468C52.6284 18.1468 54.4368 19.9551 54.4368 22.1789H58.469C58.469 20.2416 57.7533 18.4834 56.6104 17.0924C57.078 15.3835 58.6284 14.1146 60.485 14.1146C62.7088 14.1146 64.5172 15.923 64.5172 18.1468V74.5973C64.5172 76.8211 62.7088 78.6295 60.485 78.6295C58.6284 78.6295 57.078 77.3616 56.6104 75.6516C57.7533 74.2606 58.469 72.5035 58.469 70.5651H54.4368C54.4368 72.7889 52.6284 74.5973 50.4046 74.5973C48.1808 74.5973 46.3724 72.7889 46.3724 70.5651C46.3724 68.3413 48.1808 66.5329 50.4046 66.5329V62.5008C48.4407 62.5008 46.6628 63.2351 45.2639 64.4046C42.4574 63.8819 40.3241 61.4248 40.3241 58.4686C40.3241 55.1344 43.0382 52.4203 46.3724 52.4203C49.7076 52.4203 52.4207 55.1344 52.4207 58.4686H56.4529C56.4529 52.9106 51.9314 48.3881 46.3724 48.3881C44.0945 48.3881 42.0134 49.1766 40.3241 50.4574V50.4042C38.1003 50.4042 36.2919 48.5958 36.2919 46.372C36.2919 44.1482 38.1003 42.3399 40.3241 42.3399V42.2877C42.0134 43.5684 44.0945 44.3559 46.3724 44.3559C51.9314 44.3559 56.4529 39.8345 56.4529 34.2755H52.4207C52.4207 37.6107 49.7076 40.3238 46.3724 40.3238C43.0382 40.3238 40.3241 37.6107 40.3241 34.2755C40.3241 31.3203 42.4574 28.8632 45.2639 28.3404C46.6628 29.5099 48.4407 30.2433 50.4046 30.2433V26.2111C48.1808 26.2111 46.3724 24.4027 46.3724 22.1789C46.3724 19.9551 48.1808 18.1468 50.4046 18.1468Z" fill="#1F70C1"/>
<path d="M90.7264 14.1146C89.7222 14.1146 88.7713 14.3223 87.8843 14.657C86.577 11.9617 83.8374 10.0824 80.6459 10.0824C76.1983 10.0824 72.5815 13.7001 72.5815 18.1468V74.5973C72.5815 79.0449 76.1983 82.6617 80.6459 82.6617C83.8374 82.6617 86.577 80.7834 87.8843 78.0871C88.7713 78.4218 89.7222 78.6295 90.7264 78.6295C95.174 78.6295 98.7907 75.0127 98.7907 70.5651C98.7907 69.6181 98.5978 68.7203 98.2946 67.8757C102.107 66.4365 104.839 62.7794 104.839 58.4686C104.839 56.8098 104.398 55.2653 103.684 53.8822C106.708 52.7186 108.871 49.8037 108.871 46.372C108.871 42.9413 106.708 40.0255 103.684 38.8629C104.398 37.4798 104.839 35.9352 104.839 34.2755C104.839 29.9657 102.107 26.3086 98.2946 24.8684C98.5978 24.0237 98.7907 23.1269 98.7907 22.1789C98.7907 17.7323 95.174 14.1146 90.7264 14.1146ZM100.807 34.2755C100.807 37.6107 98.0938 40.3238 94.7585 40.3238C91.4243 40.3238 88.7103 37.6107 88.7103 34.2755H84.6781C84.6781 39.8345 89.2005 44.3559 94.7585 44.3559C97.0365 44.3559 99.1175 43.5684 100.807 42.2877V42.3399C103.031 42.3399 104.839 44.1482 104.839 46.372C104.839 48.5958 103.031 50.4042 100.807 50.4042V50.4574C99.1175 49.1766 97.0365 48.3881 94.7585 48.3881C89.2005 48.3881 84.6781 52.9106 84.6781 58.4686H88.7103C88.7103 55.1344 91.4243 52.4203 94.7585 52.4203C98.0938 52.4203 100.807 55.1344 100.807 58.4686C100.807 61.4248 98.6736 63.8819 95.868 64.4046C94.4681 63.2351 92.6903 62.5008 90.7264 62.5008V66.5329C92.9502 66.5329 94.7585 68.3413 94.7585 70.5651C94.7585 72.7889 92.9502 74.5973 90.7264 74.5973C88.5026 74.5973 86.6942 72.7889 86.6942 70.5651H82.662C82.662 72.5035 83.3777 74.2606 84.5206 75.6516C84.053 77.3616 82.5025 78.6295 80.6459 78.6295C78.4221 78.6295 76.6137 76.8211 76.6137 74.5973V18.1468C76.6137 15.923 78.4221 14.1146 80.6459 14.1146C82.5025 14.1146 84.053 15.3835 84.5206 17.0924C83.3777 18.4834 82.662 20.2416 82.662 22.1789H86.6942C86.6942 19.9551 88.5026 18.1468 90.7264 18.1468C92.9502 18.1468 94.7585 19.9551 94.7585 22.1789C94.7585 24.4027 92.9502 26.2111 90.7264 26.2111V30.2433C92.6903 30.2433 94.4681 29.5099 95.868 28.3404C98.6736 28.8632 100.807 31.3203 100.807 34.2755Z" fill="#1F70C1"/>
<path d="M102.313 12.575C92.892 3.7201 80.5533 -0.719635 67.6042 0.0954647L67.8543 4.11879C79.686 3.38343 90.9478 7.42939 99.5526 15.5125C108.161 23.6024 112.903 34.5639 112.903 46.372C112.903 60.6018 105.811 73.797 93.9296 81.6704C89.8314 84.3874 86.7305 88.263 84.8198 92.7421H56.2273C54.29 88.2305 51.1772 84.3273 47.0722 81.5857C34.828 73.4022 27.7923 59.7355 28.2501 45.0214L24.2199 44.8964C23.7178 61.0094 31.4248 75.9785 44.8326 84.9367C47.7938 86.9163 50.1583 89.6117 51.8063 92.7421H46.3723V96.7743H53.4148C53.8056 98.0806 54.1187 99.4194 54.2772 100.806H50.4045V104.839H54.4366V110.887C54.4366 112.002 55.3403 112.903 56.4527 112.903H58.4688C58.4688 119.574 63.894 125 70.5654 125C77.2368 125 82.6619 119.574 82.6619 112.903H84.678C85.7914 112.903 86.6941 112.002 86.6941 110.887V104.839H90.7263V100.806H86.8358C86.9786 99.4214 87.2631 98.0787 87.646 96.7743H94.7585V92.7421H89.2368C90.8611 89.6461 93.2119 86.9843 96.1583 85.0331C109.167 76.4057 116.935 61.9544 116.935 46.372C116.935 33.6268 111.605 21.3068 102.313 12.575ZM70.5654 120.967C66.1178 120.967 62.501 117.351 62.501 112.903H78.6297C78.6297 117.351 75.013 120.967 70.5654 120.967ZM82.6619 108.871H58.4688V104.839H82.6619V108.871ZM82.8056 100.806H58.3074C58.1725 99.4342 57.9549 98.0856 57.6242 96.7743H83.4327C83.1118 98.0836 82.9257 99.4382 82.8056 100.806Z" fill="#1F70C1"/>
<path d="M22.1792 14.1146C26.6268 14.1146 30.2435 17.7323 30.2435 22.179C30.2435 23.2943 31.1472 24.195 32.2596 24.195C33.373 24.195 34.2757 23.2943 34.2757 22.179C34.2757 17.7323 37.8925 14.1146 42.3401 14.1146C43.4535 14.1146 44.3562 13.2138 44.3562 12.0985C44.3562 10.9841 43.4535 10.0824 42.3401 10.0824C37.8925 10.0824 34.2757 6.46565 34.2757 2.01804C34.2757 0.903681 33.373 0.00195312 32.2596 0.00195312C31.1472 0.00195312 30.2435 0.903681 30.2435 2.01804C30.2435 6.46565 26.6268 10.0824 22.1792 10.0824C21.0668 10.0824 20.1631 10.9841 20.1631 12.0985C20.1631 13.2138 21.0668 14.1146 22.1792 14.1146ZM32.2596 8.69733C33.1554 10.044 34.3141 11.2037 35.6608 12.0985C34.3141 12.9943 33.1554 14.153 32.2596 15.4997C31.3648 14.153 30.2051 12.9943 28.8585 12.0985C30.2051 11.2037 31.3648 10.044 32.2596 8.69733Z" fill="#1F70C1"/>
<path d="M30.2434 34.2755C31.3568 34.2755 32.2595 33.3747 32.2595 32.2594C32.2595 31.145 31.3568 30.2433 30.2434 30.2433C25.7958 30.2433 22.179 26.6265 22.179 22.1789C22.179 21.0646 21.2763 20.1628 20.1629 20.1628C19.0506 20.1628 18.1469 21.0646 18.1469 22.1789C18.1469 26.6265 14.5301 30.2433 10.0825 30.2433C8.9701 30.2433 8.06641 31.145 8.06641 32.2594C8.06641 33.3747 8.9701 34.2755 10.0825 34.2755C14.5301 34.2755 18.1469 37.8932 18.1469 42.3398C18.1469 43.4552 19.0506 44.3559 20.1629 44.3559C21.2763 44.3559 22.179 43.4552 22.179 42.3398C22.179 37.8932 25.7958 34.2755 30.2434 34.2755ZM20.1629 35.6606C19.2681 34.3139 18.1085 33.1552 16.7618 32.2594C18.1085 31.3646 19.2661 30.2049 20.1629 28.8582C21.0588 30.2049 22.2174 31.3626 23.5641 32.2594C22.2174 33.1552 21.0588 34.3139 20.1629 35.6606Z" fill="#1F70C1"/>
</svg>
