<svg width="125" height="125" viewBox="0 0 125 125" fill="none" xmlns="http://www.w3.org/2000/svg">
<path d="M72.2656 105.469H68.3594V86.3281C68.3594 85.8101 68.1536 85.3133 67.7873 84.9471C67.421 84.5808 66.9243 84.375 66.4062 84.375C65.8882 84.375 65.3915 84.5808 65.0252 84.9471C64.6589 85.3133 64.4531 85.8101 64.4531 86.3281V105.469H13.6719V66.4062H29.9219C30.4399 66.4062 30.9367 66.2005 31.3029 65.8342C31.6692 65.4679 31.875 64.9711 31.875 64.4531C31.875 63.9351 31.6692 63.4383 31.3029 63.0721C30.9367 62.7058 30.4399 62.5 29.9219 62.5H11.7188C11.2007 62.5 10.704 62.7058 10.3377 63.0721C9.9714 63.4383 9.76562 63.9351 9.76562 64.4531V105.469H5.85938C5.34137 105.469 4.84459 105.675 4.47831 106.041C4.11202 106.407 3.90625 106.904 3.90625 107.422V111.328C3.90625 113.918 4.93513 116.402 6.76654 118.233C8.59795 120.065 11.0819 121.094 13.6719 121.094H64.4531C67.0431 121.094 69.5271 120.065 71.3585 118.233C73.1899 116.402 74.2188 113.918 74.2188 111.328V107.422C74.2188 106.904 74.013 106.407 73.6467 106.041C73.2804 105.675 72.7836 105.469 72.2656 105.469ZM70.3125 111.328C70.3125 112.882 69.6952 114.372 68.5963 115.471C67.4975 116.57 66.0071 117.188 64.4531 117.188H60.5469V115.234C60.5469 114.716 60.3411 114.22 59.9748 113.853C59.6085 113.487 59.1118 113.281 58.5938 113.281C58.0757 113.281 57.579 113.487 57.2127 113.853C56.8464 114.22 56.6406 114.716 56.6406 115.234V117.188H21.4844V115.234C21.4844 114.716 21.2786 114.22 20.9123 113.853C20.546 113.487 20.0493 113.281 19.5312 113.281C19.0132 113.281 18.5165 113.487 18.1502 113.853C17.7839 114.22 17.5781 114.716 17.5781 115.234V117.188H13.6719C12.1179 117.188 10.6275 116.57 9.52867 115.471C8.42983 114.372 7.8125 112.882 7.8125 111.328V109.375H70.3125V111.328Z" fill="#1F70C1"/>
<path d="M105.469 15.625H109.375C109.893 15.625 110.39 15.4192 110.756 15.0529C111.122 14.6867 111.328 14.1899 111.328 13.6719C111.328 13.1539 111.122 12.6571 110.756 12.2908C110.39 11.9245 109.893 11.7188 109.375 11.7188H105.469C103.915 11.7188 102.424 12.3361 101.326 13.4349C100.227 14.5338 99.6094 16.0241 99.6094 17.5781V19.5312H97.6562C97.1382 19.5312 96.6415 19.737 96.2752 20.1033C95.9089 20.4696 95.7031 20.9664 95.7031 21.4844C95.7031 22.0024 95.9089 22.4992 96.2752 22.8654C96.6415 23.2317 97.1382 23.4375 97.6562 23.4375H99.6094V29.2969C99.6094 29.8149 99.8151 30.3117 100.181 30.6779C100.548 31.0442 101.044 31.25 101.562 31.25C102.081 31.25 102.577 31.0442 102.944 30.6779C103.31 30.3117 103.516 29.8149 103.516 29.2969V23.4375H105.469C105.987 23.4375 106.484 23.2317 106.85 22.8654C107.216 22.4992 107.422 22.0024 107.422 21.4844C107.422 20.9664 107.216 20.4696 106.85 20.1033C106.484 19.737 105.987 19.5312 105.469 19.5312H103.516V17.5781C103.516 17.0601 103.721 16.5633 104.088 16.1971C104.454 15.8308 104.951 15.625 105.469 15.625Z" fill="#1F70C1"/>
<path d="M115.234 3.90625H91.7969C90.2429 3.90625 88.7525 4.52358 87.6537 5.62242C86.5548 6.72127 85.9375 8.21162 85.9375 9.76562V13.6719C85.9375 14.1899 86.1433 14.6867 86.5096 15.0529C86.8758 15.4192 87.3726 15.625 87.8906 15.625C88.4086 15.625 88.9054 15.4192 89.2717 15.0529C89.638 14.6867 89.8438 14.1899 89.8438 13.6719V9.76562C89.8438 9.24762 90.0495 8.75084 90.4158 8.38456C90.7821 8.01828 91.2789 7.8125 91.7969 7.8125H115.234C115.752 7.8125 116.249 8.01828 116.615 8.38456C116.982 8.75084 117.188 9.24762 117.188 9.76562V33.2031C117.188 33.7211 116.982 34.2179 116.615 34.5842C116.249 34.9505 115.752 35.1562 115.234 35.1562H91.7969C91.2789 35.1562 90.7821 34.9505 90.4158 34.5842C90.0495 34.2179 89.8438 33.7211 89.8438 33.2031V21.4844C89.8438 20.9664 89.638 20.4696 89.2717 20.1033C88.9054 19.737 88.4086 19.5312 87.8906 19.5312C87.3726 19.5312 86.8758 19.737 86.5096 20.1033C86.1433 20.4696 85.9375 20.9664 85.9375 21.4844V33.2031C85.9375 34.7571 86.5548 36.2475 87.6537 37.3463C88.7525 38.4452 90.2429 39.0625 91.7969 39.0625H115.234C116.788 39.0625 118.279 38.4452 119.378 37.3463C120.476 36.2475 121.094 34.7571 121.094 33.2031V9.76562C121.094 8.21162 120.476 6.72127 119.378 5.62242C118.279 4.52358 116.788 3.90625 115.234 3.90625Z" fill="#1F70C1"/>
<path d="M95.7031 82.0313C95.7031 83.5764 96.1613 85.0869 97.0198 86.3717C97.8782 87.6564 99.0984 88.6578 100.526 89.2491C101.953 89.8404 103.524 89.9951 105.04 89.6936C106.555 89.3922 107.947 88.6481 109.04 87.5555C110.133 86.4629 110.877 85.0709 111.178 83.5554C111.479 82.0399 111.325 80.4691 110.733 79.0415C110.142 77.614 109.141 76.3938 107.856 75.5354C106.571 74.6769 105.061 74.2188 103.516 74.2188C101.444 74.2188 99.4565 75.0419 97.9914 76.507C96.5262 77.9721 95.7031 79.9593 95.7031 82.0313ZM107.422 82.0313C107.422 82.8038 107.193 83.5591 106.764 84.2015C106.334 84.8438 105.724 85.3445 105.01 85.6402C104.297 85.9358 103.511 86.0132 102.754 85.8625C101.996 85.7117 101.3 85.3397 100.753 84.7934C100.207 84.2471 99.8352 83.5511 99.6844 82.7933C99.5337 82.0356 99.6111 81.2502 99.9067 80.5364C100.202 79.8226 100.703 79.2125 101.345 78.7833C101.988 78.3541 102.743 78.125 103.516 78.125C104.552 78.125 105.545 78.5366 106.278 79.2691C107.01 80.0017 107.422 80.9953 107.422 82.0313Z" fill="#1F70C1"/>
<path d="M115.234 64.4531H91.7969C90.2429 64.4531 88.7525 65.0705 87.6537 66.1693C86.5548 67.2681 85.9375 68.7585 85.9375 70.3125V93.75C85.9375 95.304 86.5548 96.7944 87.6537 97.8932C88.7525 98.992 90.2429 99.6094 91.7969 99.6094H115.234C116.788 99.6094 118.279 98.992 119.378 97.8932C120.476 96.7944 121.094 95.304 121.094 93.75V89.8438C121.094 89.3257 120.888 88.829 120.522 88.4627C120.155 88.0964 119.659 87.8906 119.141 87.8906C118.623 87.8906 118.126 88.0964 117.76 88.4627C117.393 88.829 117.188 89.3257 117.188 89.8438V93.75C117.188 94.268 116.982 94.7648 116.615 95.1311C116.249 95.4974 115.752 95.7031 115.234 95.7031H91.7969C91.2789 95.7031 90.7821 95.4974 90.4158 95.1311C90.0495 94.7648 89.8438 94.268 89.8438 93.75V70.3125C89.8438 69.7945 90.0495 69.2977 90.4158 68.9314C90.7821 68.5651 91.2789 68.3594 91.7969 68.3594H115.234C115.752 68.3594 116.249 68.5651 116.615 68.9314C116.982 69.2977 117.188 69.7945 117.188 70.3125V82.0312C117.188 82.5493 117.393 83.046 117.76 83.4123C118.126 83.7786 118.623 83.9844 119.141 83.9844C119.659 83.9844 120.155 83.7786 120.522 83.4123C120.888 83.046 121.094 82.5493 121.094 82.0312V70.3125C121.094 68.7585 120.476 67.2681 119.378 66.1693C118.279 65.0705 116.788 64.4531 115.234 64.4531Z" fill="#1F70C1"/>
<path d="M47.793 27.0507C48.1038 27.2434 48.4625 27.3449 48.8281 27.3437C49.1339 27.3419 49.4349 27.2683 49.707 27.1289L61.4258 21.2695C61.7457 21.1056 62.0142 20.8566 62.2017 20.5499C62.3892 20.2432 62.4884 19.8907 62.4884 19.5312C62.4884 19.1717 62.3892 18.8192 62.2017 18.5125C62.0142 18.2058 61.7457 17.9568 61.4258 17.7929L49.707 11.9335C49.4097 11.7837 49.079 11.7124 48.7464 11.7263C48.4137 11.7403 48.0902 11.839 47.8064 12.0132C47.5227 12.1873 47.2881 12.4311 47.1251 12.7214C46.9621 13.0117 46.876 13.3389 46.875 13.6718V25.3906C46.8743 25.7225 46.9583 26.0491 47.1189 26.3396C47.2795 26.6301 47.5115 26.8748 47.793 27.0507ZM50.7813 16.8359L56.1719 19.5312L50.7813 22.2265V16.8359Z" fill="#1F70C1"/>
<path d="M52.7344 37.1094C56.211 37.1094 59.6096 36.0784 62.5003 34.1469C65.391 32.2154 67.644 29.4701 68.9744 26.2581C70.3049 23.0461 70.653 19.5118 69.9747 16.1019C69.2965 12.6921 67.6223 9.55999 65.164 7.10165C62.7056 4.6433 59.5735 2.96915 56.1637 2.29089C52.7539 1.61264 49.2195 1.96074 46.0075 3.29119C42.7955 4.62163 40.0502 6.87467 38.1187 9.76538C36.1872 12.6561 35.1562 16.0546 35.1562 19.5313C35.1563 24.1933 37.0082 28.6643 40.3048 31.9609C43.6013 35.2574 48.0724 37.1094 52.7344 37.1094ZM52.7344 5.85938C55.4384 5.85938 58.0817 6.66122 60.3301 8.16351C62.5784 9.66579 64.3307 11.801 65.3655 14.2993C66.4003 16.7975 66.6711 19.5464 66.1436 22.1985C65.616 24.8506 64.3139 27.2867 62.4018 29.1987C60.4898 31.1108 58.0537 32.4129 55.4016 32.9404C52.7495 33.468 50.0006 33.1972 47.5024 32.1624C45.0042 31.1276 42.8689 29.3753 41.3666 27.1269C39.8643 24.8786 39.0625 22.2353 39.0625 19.5313C39.0625 15.9053 40.5029 12.4278 43.0669 9.86378C45.6309 7.29981 49.1084 5.85938 52.7344 5.85938Z" fill="#1F70C1"/>
<path d="M72.2656 44.9219C72.5688 44.9219 72.8679 44.8513 73.1391 44.7157C73.4103 44.5801 73.6462 44.3832 73.8281 44.1406L79.6875 36.3281C79.9983 35.9137 80.1317 35.3928 80.0585 34.88C79.9852 34.3672 79.7113 33.9046 79.2969 33.5938C78.8825 33.283 78.3616 33.1495 77.8488 33.2228C77.336 33.296 76.8733 33.57 76.5625 33.9844L70.7031 41.7969C70.3923 42.2113 70.2589 42.7322 70.3321 43.245C70.4054 43.7578 70.6794 44.2205 71.0938 44.5313C71.4318 44.7848 71.843 44.9219 72.2656 44.9219Z" fill="#1F70C1"/>
<path d="M76.5625 51.9531C76.7444 52.1957 76.9803 52.3926 77.2515 52.5282C77.5227 52.6638 77.8218 52.7344 78.125 52.7344C78.5476 52.7344 78.9588 52.5973 79.2969 52.3438L87.1094 46.4844C87.5238 46.1736 87.7977 45.7109 87.871 45.1981C87.9442 44.6853 87.8108 44.1644 87.5 43.75C87.1892 43.3356 86.7265 43.0616 86.2137 42.9884C85.7009 42.9151 85.18 43.0486 84.7656 43.3594L76.9531 49.2188C76.5387 49.5296 76.2648 49.9923 76.1915 50.505C76.1183 51.0178 76.2517 51.5387 76.5625 51.9531Z" fill="#1F70C1"/>
<path d="M95.7031 56.2498C95.6567 55.9909 95.5584 55.744 95.4142 55.524C95.2701 55.3039 95.0829 55.1153 94.864 54.9694C94.6451 54.8235 94.399 54.7233 94.1405 54.6748C93.8819 54.6263 93.6162 54.6306 93.3594 54.6873L83.5937 56.6405C83.3372 56.6661 83.0883 56.742 82.8612 56.8639C82.634 56.9857 82.4331 57.1511 82.2699 57.3506C81.9402 57.7535 81.7841 58.2709 81.8359 58.7889C81.8877 59.3069 82.1432 59.7831 82.5461 60.1128C82.949 60.4424 83.4664 60.5985 83.9844 60.5467H84.375L94.1406 58.5936C94.3995 58.5472 94.6464 58.4489 94.8665 58.3047C95.0865 58.1605 95.2751 57.9734 95.4211 57.7545C95.567 57.5356 95.6672 57.2895 95.7156 57.031C95.7641 56.7724 95.7598 56.5067 95.7031 56.2498Z" fill="#1F70C1"/>
<path d="M5.85938 56.6406H29.2969C29.8149 56.6406 30.3117 56.4349 30.6779 56.0686C31.0442 55.7023 31.25 55.2055 31.25 54.6875V23.4375C31.25 22.9195 31.0442 22.4227 30.6779 22.0564C30.3117 21.6902 29.8149 21.4844 29.2969 21.4844H5.85938C5.34137 21.4844 4.84459 21.6902 4.47831 22.0564C4.11202 22.4227 3.90625 22.9195 3.90625 23.4375V54.6875C3.90625 55.2055 4.11202 55.7023 4.47831 56.0686C4.84459 56.4349 5.34137 56.6406 5.85938 56.6406ZM7.8125 25.3906H27.3438V52.7344H7.8125V25.3906Z" fill="#1F70C1"/>
<path d="M21.4844 29.2969H17.5781C17.0601 29.2969 16.5633 29.5027 16.1971 29.8689C15.8308 30.2352 15.625 30.732 15.625 31.25C15.625 31.768 15.8308 32.2648 16.1971 32.6311C16.5633 32.9974 17.0601 33.2031 17.5781 33.2031H21.4844C22.0024 33.2031 22.4992 32.9974 22.8654 32.6311C23.2317 32.2648 23.4375 31.768 23.4375 31.25C23.4375 30.732 23.2317 30.2352 22.8654 29.8689C22.4992 29.5027 22.0024 29.2969 21.4844 29.2969Z" fill="#1F70C1"/>
<path d="M21.4844 37.1094H13.6719C13.1539 37.1094 12.6571 37.3151 12.2908 37.6814C11.9245 38.0477 11.7188 38.5445 11.7188 39.0625C11.7188 39.5805 11.9245 40.0773 12.2908 40.4436C12.6571 40.8099 13.1539 41.0156 13.6719 41.0156H21.4844C22.0024 41.0156 22.4992 40.8099 22.8654 40.4436C23.2317 40.0773 23.4375 39.5805 23.4375 39.0625C23.4375 38.5445 23.2317 38.0477 22.8654 37.6814C22.4992 37.3151 22.0024 37.1094 21.4844 37.1094Z" fill="#1F70C1"/>
<path d="M21.4844 44.9219H13.6719C13.1539 44.9219 12.6571 45.1276 12.2908 45.4939C11.9245 45.8602 11.7188 46.357 11.7188 46.875C11.7188 47.393 11.9245 47.8898 12.2908 48.2561C12.6571 48.6224 13.1539 48.8281 13.6719 48.8281H21.4844C22.0024 48.8281 22.4992 48.6224 22.8654 48.2561C23.2317 47.8898 23.4375 47.393 23.4375 46.875C23.4375 46.357 23.2317 45.8602 22.8654 45.4939C22.4992 45.1276 22.0024 44.9219 21.4844 44.9219Z" fill="#1F70C1"/>
<path d="M70.5467 56.0548C70.4185 55.8316 70.2475 55.6359 70.0437 55.4789C69.8398 55.3218 69.607 55.2064 69.3585 55.1393C69.11 55.0722 68.8508 55.0547 68.5955 55.0878C68.3403 55.1209 68.0941 55.2039 67.8709 55.3321C67.6478 55.4604 67.4521 55.6313 67.295 55.8352C67.1379 56.0391 67.0225 56.2719 66.9554 56.5204C66.8883 56.7688 66.8708 57.0281 66.9039 57.2833C66.937 57.5386 67.02 57.7848 67.1483 58.0079L75.7616 72.9103L44.5116 84.629C44.5116 84.629 44.5116 84.629 44.3748 84.629H44.2186L39.1405 87.5587L35.7616 89.5118C35.3167 89.769 34.8255 89.9359 34.3161 90.0029C33.8067 90.0699 33.289 90.0358 32.7928 89.9024C31.7959 89.6331 30.9462 88.9801 30.4295 88.086L26.5233 81.3282C26.0637 80.4441 25.9594 79.4177 26.2317 78.4592C26.504 77.5007 27.1324 76.6825 27.9881 76.172L34.7459 72.2657L39.6287 80.7228C39.8008 81.0208 40.0486 81.2681 40.347 81.4396C40.6454 81.6111 40.9838 81.7007 41.328 81.6993C41.6715 81.7007 42.0093 81.6114 42.3073 81.4406C42.6052 81.2697 42.8529 81.0233 43.0253 80.7261C43.1976 80.429 43.2885 80.0917 43.2889 79.7481C43.2892 79.4046 43.1989 79.0671 43.0272 78.7696L37.9881 70.0587L62.4998 49.8439L63.3006 51.2306C63.4289 51.4537 63.5998 51.6494 63.8037 51.8065C64.0076 51.9636 64.2404 52.079 64.4889 52.1461C64.7373 52.2132 64.9966 52.2307 65.2518 52.1976C65.507 52.1645 65.7533 52.0815 65.9764 51.9532C66.1996 51.825 66.3953 51.654 66.5523 51.4502C66.7094 51.2463 66.8248 51.0135 66.8919 50.765C66.959 50.5165 66.9765 50.2573 66.9434 50.002C66.9103 49.7468 66.8273 49.5006 66.6991 49.2774L64.7459 45.8985C64.6028 45.6538 64.4081 45.4432 64.1754 45.2813C63.9427 45.1194 63.6775 45.0101 63.3983 44.961C63.1176 44.9081 62.8287 44.9174 62.552 44.9883C62.2752 45.0592 62.0174 45.1899 61.7967 45.3712L34.453 67.9103L26.1327 72.7149C24.6395 73.5846 23.4768 74.9248 22.8266 76.5258C22.1763 78.1267 22.0751 79.898 22.5389 81.5626L20.5858 82.6759C19.5794 83.2538 18.7674 84.1175 18.2525 85.1575C17.7377 86.1975 17.5432 87.367 17.6939 88.5176C17.8445 89.6683 18.3334 90.7483 19.0986 91.6207C19.8638 92.4931 20.8708 93.1187 21.992 93.4181C22.4891 93.5497 23.0013 93.6154 23.5155 93.6134C24.5429 93.6091 25.552 93.3401 26.4452 92.8321L28.3983 91.7189C29.3365 92.6881 30.5164 93.3893 31.8162 93.7501C32.4837 93.9368 33.174 94.0288 33.867 94.0235C35.2399 94.0267 36.5886 93.6626 37.7733 92.9689L39.4725 91.9923L43.3787 98.7696C44.1551 100.112 45.4317 101.092 46.929 101.494C48.4263 101.897 50.0222 101.69 51.367 100.918C52.0342 100.534 52.6191 100.021 53.0882 99.4109C53.5573 98.8003 53.9015 98.1032 54.101 97.3595C54.3006 96.6158 54.3515 95.84 54.2511 95.0766C54.1506 94.3132 53.9006 93.577 53.5155 92.9103L49.9608 86.7189L79.2577 75.7228C79.5234 75.6229 79.7641 75.4663 79.9631 75.2639C80.1621 75.0615 80.3146 74.8182 80.41 74.5509C80.5051 74.2867 80.5421 74.0052 80.5185 73.7254C80.4949 73.4457 80.4112 73.1743 80.2733 72.9298L70.5467 56.0548ZM24.4139 89.4337C24.1915 89.5623 23.9459 89.6457 23.6912 89.6792C23.4365 89.7127 23.1776 89.6957 22.9295 89.629C22.4291 89.499 22.0007 89.1759 21.7381 88.7306C21.6095 88.5082 21.5261 88.2626 21.4926 88.0078C21.4591 87.7531 21.4761 87.4943 21.5428 87.2462C21.6095 86.9968 21.7249 86.7631 21.8825 86.5586C22.0401 86.3541 22.2366 86.1829 22.4608 86.0548L24.16 85.0782L26.1131 88.4571L24.4139 89.4337ZM50.117 94.9025C50.2456 95.1249 50.3291 95.3705 50.3626 95.6252C50.3961 95.8799 50.379 96.1387 50.3123 96.3868C50.173 96.8833 49.8431 97.3046 49.3944 97.5587C48.9483 97.815 48.4191 97.8849 47.9217 97.7532C47.4243 97.6216 46.999 97.299 46.7381 96.8556L42.8319 90.0782L46.0741 88.2228H46.2303L50.117 94.9025Z" fill="#1F70C1"/>
</svg>
