<svg width="44" height="44" viewBox="0 0 44 44" fill="none" xmlns="http://www.w3.org/2000/svg">
<path d="M42.4016 2.11495L33.4643 0.0524907C32.4932 -0.170942 31.4963 0.336078 31.101 1.247L26.9761 10.8718C26.6152 11.714 26.8558 12.7022 27.5691 13.278L32.7768 17.5404C29.6831 24.1317 24.2777 29.6144 17.549 32.7682L13.2866 27.5605C12.7022 26.8472 11.7225 26.6066 10.8804 26.9675L1.25556 31.0925C0.336045 31.4964 -0.170976 32.4932 0.0524565 33.4643L2.11491 42.4016C2.32975 43.3297 3.15474 44 4.12581 44C26.134 44 44 26.1683 44 4.12584C44 3.16336 43.3383 2.32979 42.4016 2.11495Z" fill="#656565"/>
</svg>
