<svg width="125" height="125" viewBox="0 0 125 125" fill="none" xmlns="http://www.w3.org/2000/svg">
<path d="M102.083 0H22.9167C17.1667 0.00677083 12.5068 4.66667 12.5 10.4167V66.6667C12.5068 72.4167 17.1667 77.0766 22.9167 77.0833H51.4042L48.4292 87.5H41.6667V91.6667H83.3333V87.5H76.5708L73.5958 77.0833H102.083C107.833 77.0766 112.493 72.4167 112.5 66.6667V10.4167C112.493 4.66667 107.833 0.00677083 102.083 0ZM52.7625 87.5L55.7375 77.0833H69.2625L72.2375 87.5H52.7625ZM108.333 66.6667C108.333 70.1185 105.535 72.9167 102.083 72.9167H22.9167C19.4648 72.9167 16.6667 70.1185 16.6667 66.6667V62.5H108.333V66.6667ZM108.333 58.3333H16.6667V10.4167C16.6667 6.96484 19.4648 4.16667 22.9167 4.16667H102.083C105.535 4.16667 108.333 6.96484 108.333 10.4167V58.3333Z" fill="#1F70C1"/>
<path d="M79.1667 95.8333H20.8333C19.6828 95.8333 18.75 96.7661 18.75 97.9166V122.917C18.75 124.067 19.6828 125 20.8333 125H79.1667C80.3172 125 81.25 124.067 81.25 122.917V97.9166C81.25 96.7661 80.3172 95.8333 79.1667 95.8333ZM77.0833 120.833H22.9167V99.9999H77.0833V120.833Z" fill="#1F70C1"/>
<path d="M31.2499 112.5H27.0833V116.667H31.2499V112.5Z" fill="#1F70C1"/>
<path d="M31.2499 104.167H27.0833V108.333H31.2499V104.167Z" fill="#1F70C1"/>
<path d="M39.5834 104.167H35.4167V108.333H39.5834V104.167Z" fill="#1F70C1"/>
<path d="M47.9167 104.167H43.75V108.333H47.9167V104.167Z" fill="#1F70C1"/>
<path d="M64.5834 104.167H60.4167V108.333H64.5834V104.167Z" fill="#1F70C1"/>
<path d="M56.2499 104.167H52.0833V108.333H56.2499V104.167Z" fill="#1F70C1"/>
<path d="M72.9167 112.5H68.75V116.667H72.9167V112.5Z" fill="#1F70C1"/>
<path d="M72.9167 104.167H68.75V108.333H72.9167V104.167Z" fill="#1F70C1"/>
<path d="M64.5834 112.5H35.4167V116.667H64.5834V112.5Z" fill="#1F70C1"/>
<path d="M95.8334 95.8333C90.0806 95.8333 85.4167 100.497 85.4167 106.25V114.583C85.4167 120.336 90.0806 125 95.8334 125C101.586 125 106.25 120.336 106.25 114.583V106.25C106.25 100.497 101.586 95.8333 95.8334 95.8333ZM102.083 114.583C102.083 118.035 99.2852 120.833 95.8334 120.833C92.3816 120.833 89.5834 118.035 89.5834 114.583V106.25C89.5834 102.798 92.3816 99.9999 95.8334 99.9999C99.2852 99.9999 102.083 102.798 102.083 106.25V114.583Z" fill="#1F70C1"/>
<path d="M97.9167 104.167H93.75V108.333H97.9167V104.167Z" fill="#1F70C1"/>
<path d="M64.6543 18.2209L56.3132 47.3708L60.3173 48.5166L68.6584 19.3667L64.6543 18.2209Z" fill="#1F70C1"/>
<path d="M51.3335 24.5166L48.6668 21.3167L36.1668 31.7333C35.2832 32.4703 35.1642 33.7838 35.9012 34.6677C35.9816 34.764 36.0704 34.8531 36.1668 34.9333L48.6668 45.35L51.3335 42.15L40.7543 33.3333L51.3335 24.5166Z" fill="#1F70C1"/>
<path d="M89.099 31.9989C89.0186 31.9026 88.9298 31.8135 88.8334 31.7333L76.3334 21.3167L73.6667 24.5166L84.2459 33.3333L73.6667 42.15L76.3334 45.35L88.8334 34.9333C89.717 34.1963 89.836 32.8828 89.099 31.9989Z" fill="#1F70C1"/>
</svg>
