<svg width="125" height="125" viewBox="0 0 125 125" fill="none" xmlns="http://www.w3.org/2000/svg">
<path d="M79.7419 32.4858C83.1074 32.4858 85.8455 29.7478 85.8455 26.3823C85.8455 23.0168 83.1074 20.2786 79.7419 20.2786C76.3765 20.2786 73.6384 23.0168 73.6384 26.3823C73.6384 27.7568 74.0955 29.0264 74.8652 30.0479L64.8369 44.0618C64.2385 43.8652 63.6001 43.7573 62.9365 43.7573C61.3328 43.7573 59.8723 44.3801 58.782 45.3953L52.0977 41.6023C52.1868 41.1882 52.2346 40.759 52.2346 40.3188C52.2346 36.9534 49.4966 34.2153 46.1311 34.2153C42.7656 34.2153 40.0276 36.9534 40.0276 40.3188C40.0276 40.759 40.0754 41.1882 40.1646 41.6023L33.4802 45.3953C32.3899 44.3801 30.9294 43.7576 29.3257 43.7576C25.9602 43.7576 23.2222 46.4958 23.2222 49.8613C23.2222 53.2268 25.9602 55.9651 29.3257 55.9651C32.6912 55.9651 35.4292 53.2268 35.4292 49.8613C35.4292 49.4211 35.3814 48.9919 35.2922 48.5779L41.9766 44.7849C43.0669 45.8 44.5273 46.4229 46.1311 46.4229C47.7349 46.4229 49.1951 45.8001 50.2856 44.7852L56.97 48.5781C56.8809 48.9922 56.833 49.4214 56.833 49.8616C56.833 53.2271 59.571 55.9653 62.9365 55.9653C66.3022 55.9653 69.0403 53.2271 69.0403 49.8616C69.0403 48.4868 68.583 47.217 67.8132 46.1956L77.8416 32.1816C78.4397 32.3779 79.0784 32.4858 79.7419 32.4858ZM79.7419 23.9407C81.0881 23.9407 82.1834 25.0359 82.1834 26.3823C82.1834 27.7285 81.0881 28.8237 79.7419 28.8237C78.3958 28.8237 77.3005 27.7285 77.3005 26.3823C77.3003 25.0359 78.3955 23.9407 79.7419 23.9407ZM29.325 52.3025C27.9788 52.3025 26.8835 51.2073 26.8835 49.8608C26.8835 48.5144 27.9788 47.4192 29.325 47.4192C30.6711 47.4192 31.7664 48.5144 31.7664 49.8608C31.7664 51.2073 30.6711 52.3025 29.325 52.3025ZM46.1306 42.7603C44.7844 42.7603 43.6892 41.665 43.6892 40.3186C43.6892 38.9724 44.7844 37.8772 46.1306 37.8772C47.4768 37.8772 48.572 38.9724 48.572 40.3186C48.5723 41.665 47.4768 42.7603 46.1306 42.7603ZM62.9363 52.3025C61.5901 52.3025 60.4949 51.2073 60.4949 49.8608C60.4949 48.5144 61.5901 47.4192 62.9363 47.4192C64.2827 47.4192 65.3779 48.5144 65.3779 49.8608C65.3779 51.2073 64.2825 52.3025 62.9363 52.3025Z" fill="#1F70C1"/>
<path d="M102.245 92.0325H89.4312H19.6357H5.17944C4.34277 92.0325 3.66211 91.3518 3.66211 90.5151V14.9734C3.66211 14.1367 4.34277 13.4561 5.17944 13.4561H13.8113C14.8225 13.4561 15.6423 12.6365 15.6423 11.625C15.6423 10.6135 14.8225 9.79395 13.8113 9.79395H5.17944C2.32349 9.79395 0 12.1174 0 14.9734V90.5151C0 93.3711 2.32349 95.6946 5.17944 95.6946H17.8047V99.7244C17.8047 102.02 19.6724 103.888 21.968 103.888H40.2966L31.6687 120.733C31.2078 121.633 31.5635 122.736 32.4636 123.198C32.7307 123.334 33.0159 123.399 33.2969 123.399C33.9622 123.399 34.604 123.035 34.928 122.402L44.4111 103.888H64.6558L74.1389 122.402C74.4631 123.035 75.1047 123.399 75.77 123.399C76.051 123.399 76.3362 123.334 76.6033 123.198C77.5034 122.736 77.8594 121.633 77.3982 120.733L68.7703 103.888H87.0989C89.3945 103.888 91.2622 102.02 91.2622 99.7244V95.6946H102.245C103.256 95.6946 104.076 94.875 104.076 93.8635C104.076 92.8521 103.256 92.0325 102.245 92.0325ZM87.6001 99.7244C87.6001 100.001 87.3752 100.226 87.0989 100.226H21.968C21.6917 100.226 21.4668 100.001 21.4668 99.7244V95.6946H87.6001V99.7244Z" fill="#1F70C1"/>
<path d="M21.1355 13.4561H46.2019H62.8647H103.887C104.724 13.4561 105.405 14.1367 105.405 14.9734V32.3833C105.405 33.3948 106.224 34.2144 107.236 34.2144C108.247 34.2144 109.067 33.3948 109.067 32.3833V14.9734C109.067 12.1174 106.743 9.79395 103.887 9.79395H64.696V6.19482C64.696 3.66187 62.6353 1.60107 60.102 1.60107H48.9648C46.4319 1.60107 44.3708 3.66187 44.3708 6.19482V9.79395H21.1355C20.1243 9.79395 19.3044 10.6135 19.3044 11.625C19.3044 12.6365 20.1243 13.4561 21.1355 13.4561ZM48.033 6.19482C48.033 5.68115 48.4509 5.26318 48.9648 5.26318H60.102C60.6157 5.26318 61.0339 5.68115 61.0339 6.19482V9.79395H48.0332V6.19482H48.033Z" fill="#1F70C1"/>
<path d="M25.6108 65.3262C24.5996 65.3262 23.7798 66.1458 23.7798 67.1572V83.3369C23.7798 84.3484 24.5996 85.168 25.6108 85.168H33.0393C34.0505 85.168 34.8704 84.3484 34.8704 83.3369V67.1572C34.8704 66.1458 34.0505 65.3262 33.0393 65.3262H25.6108ZM31.2082 81.5061H27.4419V68.9885H31.2082V81.5061V81.5061Z" fill="#1F70C1"/>
<path d="M42.4163 55.9688C41.405 55.9688 40.5852 56.7883 40.5852 57.7998V83.3371C40.5852 84.3486 41.405 85.1682 42.4163 85.1682H49.8447C50.856 85.1682 51.6758 84.3486 51.6758 83.3371V57.7998C51.6758 56.7883 50.856 55.9688 49.8447 55.9688H42.4163ZM48.0139 81.5061H44.2476V59.6309H48.0139V81.5061Z" fill="#1F70C1"/>
<path d="M59.2219 65.3262C58.2107 65.3262 57.3909 66.1458 57.3909 67.1572V83.3369C57.3909 84.3484 58.2107 85.168 59.2219 85.168H66.6504C67.6616 85.168 68.4814 84.3484 68.4814 83.3369V67.1572C68.4814 66.1458 67.6616 65.3262 66.6504 65.3262H59.2219ZM64.8193 81.5061H61.053V68.9885H64.8193V81.5061Z" fill="#1F70C1"/>
<path d="M76.0276 76.1309C75.0164 76.1309 74.1965 76.9504 74.1965 77.9619V83.3372C74.1965 84.3486 75.0164 85.1682 76.0276 85.1682H83.4561C84.4673 85.1682 85.2871 84.3486 85.2871 83.3372C85.2871 82.3257 84.4673 81.5061 83.4561 81.5061H77.8586V77.9619C77.8586 76.9504 77.0388 76.1309 76.0276 76.1309Z" fill="#1F70C1"/>
<path d="M124.066 93.7546L113.562 75.5598C116.223 72.7231 118.161 69.257 119.196 65.3937C120.851 59.2192 120.001 52.7697 116.805 47.2336C110.207 35.8046 95.5413 31.8757 84.113 38.4736C72.6846 45.0715 68.7551 59.7372 75.3533 71.1657C78.5496 76.7018 83.7105 80.6618 89.885 82.3166C91.947 82.8691 94.0391 83.1423 96.1179 83.1423C97.9348 83.1423 99.7412 82.9333 101.508 82.5197L112.01 100.715C113.298 102.946 115.642 104.194 118.05 104.194C119.23 104.194 120.425 103.894 121.518 103.263C123.666 102.023 125 99.7121 125 97.2311C125 96.0156 124.677 94.8137 124.066 93.7546ZM90.8328 78.7792C85.603 77.3779 81.2317 74.0236 78.5244 69.3347C72.936 59.655 76.2644 47.2336 85.9439 41.645C89.1282 39.8066 92.6079 38.9335 96.0449 38.9335C103.055 38.9335 109.884 42.5695 113.634 49.0646C116.341 53.7536 117.06 59.216 115.658 64.446C114.257 69.676 110.903 74.0468 106.214 76.7541C101.525 79.4614 96.0627 80.1801 90.8328 78.7792ZM119.688 100.091C118.113 101.001 116.091 100.459 115.182 98.8845L105.078 81.3786C106.09 80.9653 107.082 80.4819 108.045 79.9257C109.01 79.3691 109.923 78.7495 110.787 78.0786L120.895 95.5851C121.185 96.0883 121.338 96.6577 121.338 97.2314C121.338 98.4077 120.706 99.5036 119.688 100.091Z" fill="#1F70C1"/>
<path d="M112.681 64.3581C113.974 60.1941 113.666 55.7361 111.814 51.8054C111.383 50.8904 110.292 50.4983 109.377 50.9292C108.462 51.3603 108.07 52.4511 108.501 53.3659C109.962 56.4665 110.205 59.9843 109.184 63.2719C108.157 66.5776 105.94 69.3518 102.94 71.0837C99.7661 72.9167 96.0676 73.403 92.5273 72.4546C88.9868 71.5058 86.0273 69.2351 84.1948 66.0608C80.4114 59.5078 82.6648 51.0986 89.2178 47.3152C94.009 44.5493 99.9551 44.9189 104.367 48.2568C105.174 48.8672 106.322 48.7082 106.932 47.9016C107.542 47.0952 107.383 45.9468 106.576 45.3366C100.988 41.1079 93.4551 40.6399 87.3865 44.1435C83.365 46.4653 80.4883 50.2143 79.2864 54.6997C78.0845 59.185 78.7014 63.8701 81.0232 67.8916C83.345 71.9133 87.094 74.7898 91.5793 75.9919C93.0771 76.3933 94.5972 76.5918 96.1072 76.5918C99.1194 76.5918 102.093 75.8017 104.771 74.2551C108.572 72.0612 111.381 68.5466 112.681 64.3581Z" fill="#1F70C1"/>
</svg>
