<svg width="44" height="44" viewBox="0 0 44 44" fill="none" xmlns="http://www.w3.org/2000/svg">
<path d="M39.5614 9.66495C34.9865 9.66495 31.2645 5.90753 31.2645 1.28906C31.2645 0.577057 30.6929 0 29.9876 0H23.1489C22.4439 0 21.872 0.577057 21.872 1.28906V29.5941C21.872 32.3091 19.6836 34.518 16.9942 34.518C14.3047 34.518 12.1167 32.3091 12.1167 29.5941C12.1167 26.8786 14.3047 24.6698 16.9942 24.6698C17.6995 24.6698 18.2711 24.0927 18.2711 23.3807V16.4768C18.2711 15.7652 17.6995 15.1878 16.9942 15.1878C9.12559 15.1878 2.72412 21.6505 2.72412 29.5941C2.72412 37.5376 9.12559 44 16.9942 44C24.8627 44 31.2645 37.5376 31.2645 29.5941V17.065C33.8057 18.4329 36.6338 19.1469 39.5614 19.1469C40.2667 19.1469 40.8383 18.5699 40.8383 17.8579V10.954C40.8383 10.2423 40.2667 9.66495 39.5614 9.66495Z" fill="white"/>
</svg>
