<svg width="39" height="44" viewBox="0 0 39 44" fill="none" xmlns="http://www.w3.org/2000/svg">
<g clip-path="url(#clip0)">
<path d="M8.54813 38.5001H0.630795V12.7962H8.54813V38.5001ZM4.5852 9.28996C2.05349 9.28996 0 7.1759 0 4.62355C1.81209e-08 3.39757 0.483082 2.2218 1.34297 1.3549C2.20287 0.487997 3.36913 0.000976562 4.5852 0.000976562C5.80127 0.000976562 6.96753 0.487997 7.82742 1.3549C8.68731 2.2218 9.1704 3.39757 9.1704 4.62355C9.1704 7.1759 7.11605 9.28996 4.5852 9.28996ZM38.1802 38.5001H30.2799V25.9876C30.2799 23.0056 30.2202 19.1814 26.1635 19.1814C22.0471 19.1814 21.4163 22.4212 21.4163 25.7728V38.5001H13.5075V12.7962H21.1009V16.3025H21.2118C22.2688 14.2829 24.8508 12.1517 28.7029 12.1517C36.7157 12.1517 38.1887 17.4712 38.1887 24.3806V38.5001H38.1802Z" fill="white"/>
</g>
<defs>
<clipPath id="clip0">
<rect width="38.1887" height="44" fill="white"/>
</clipPath>
</defs>
</svg>
