<svg width="44" height="44" viewBox="0 0 44 44" fill="none" xmlns="http://www.w3.org/2000/svg">
<g clip-path="url(#clip0)">
<path d="M39.1047 13.0379C39.1323 13.4287 39.1323 13.8197 39.1323 14.2105C39.1323 26.1318 30.1444 39.8678 13.7171 39.8678C8.65611 39.8678 3.95473 38.3881 0 35.8197C0.719066 35.9034 1.41038 35.9313 2.15711 35.9313C6.33301 35.9313 10.1772 34.5075 13.2469 32.0785C9.31985 31.9947 6.02885 29.3983 4.89496 25.8247C5.44811 25.9084 6.00118 25.9643 6.582 25.9643C7.38398 25.9643 8.18604 25.8525 8.93269 25.6572C4.83971 24.8196 1.76987 21.1902 1.76987 16.8069V16.6953C2.95901 17.3654 4.34189 17.7841 5.80752 17.8399C3.4015 16.2206 1.8252 13.4567 1.8252 10.3297C1.8252 8.65464 2.26761 7.11911 3.04201 5.779C7.43923 11.2511 14.0489 14.8246 21.4605 15.2155C21.3222 14.5455 21.2392 13.8476 21.2392 13.1496C21.2392 8.18001 25.2216 4.13184 30.1719 4.13184C32.7438 4.13184 35.0669 5.22066 36.6986 6.97955C38.7174 6.5887 40.6532 5.83486 42.3679 4.80189C41.7041 6.89584 40.2937 8.65473 38.4409 9.7714C40.2385 9.57606 41.9808 9.07341 43.5847 8.37552C42.3681 10.1622 40.847 11.7535 39.1047 13.0379Z" fill="white"/>
</g>
<defs>
<clipPath id="clip0">
<rect width="43.5849" height="44" fill="white"/>
</clipPath>
</defs>
</svg>
