<svg width="39" height="40" viewBox="0 0 39 40" fill="none" xmlns="http://www.w3.org/2000/svg">
<path d="M34.4677 0.75H4.13612C3.03915 0.75 1.98711 1.1846 1.21144 1.95818C0.435768 2.73177 0 3.78098 0 4.875L0 35.125C0 36.219 0.435768 37.2682 1.21144 38.0418C1.98711 38.8154 3.03915 39.25 4.13612 39.25H15.9628V26.1609H10.5342V20H15.9628V15.3044C15.9628 9.96336 19.1511 7.01312 24.0343 7.01312C26.3729 7.01312 28.8184 7.42906 28.8184 7.42906V12.6713H26.1239C23.469 12.6713 22.6409 14.3144 22.6409 15.9996V20H28.5677L27.6198 26.1609H22.6409V39.25H34.4677C35.5646 39.25 36.6167 38.8154 37.3923 38.0418C38.168 37.2682 38.6038 36.219 38.6038 35.125V4.875C38.6038 3.78098 38.168 2.73177 37.3923 1.95818C36.6167 1.1846 35.5646 0.75 34.4677 0.75Z" fill="white"/>
</svg>
