<svg width="50" height="44" viewBox="0 0 50 44" fill="none" xmlns="http://www.w3.org/2000/svg">
<path d="M47.1369 10.6634C46.5982 8.63096 45.0112 7.03029 42.9961 6.48708C39.3437 5.5 24.698 5.5 24.698 5.5C24.698 5.5 10.0524 5.5 6.39989 6.48708C4.38485 7.03038 2.79782 8.63096 2.25918 10.6634C1.28052 14.3473 1.28052 22.0333 1.28052 22.0333C1.28052 22.0333 1.28052 29.7194 2.25918 33.4033C2.79782 35.4357 4.38485 36.9697 6.39989 37.5129C10.0524 38.5 24.698 38.5 24.698 38.5C24.698 38.5 39.3437 38.5 42.9961 37.5129C45.0112 36.9697 46.5982 35.4357 47.1369 33.4033C48.1155 29.7194 48.1155 22.0333 48.1155 22.0333C48.1155 22.0333 48.1155 14.3473 47.1369 10.6634ZM19.908 29.0117V15.055L32.149 22.0335L19.908 29.0117Z" fill="white"/>
</svg>
