<svg width="125" height="125" viewBox="0 0 125 125" fill="none" xmlns="http://www.w3.org/2000/svg">
<path d="M48.8281 21.4844H44.9219V25.3906H41.0156V37.1094H48.8281V41.0156H41.0156V44.9219H44.9219V48.8281H48.8281V44.9219H52.7344V33.2031H44.9219V29.2969H52.7344V25.3906H48.8281V21.4844Z" fill="#1F70C1"/>
<path d="M117.188 1.95312H70.3125C67.7695 1.95312 65.6211 3.5918 64.8125 5.85938H5.85938C3.70508 5.85938 1.95312 7.61133 1.95312 9.76562V13.6719C1.95312 15.8262 3.70508 17.5781 5.85938 17.5781V109.375C5.85938 112.605 8.48828 115.234 11.7188 115.234H22.168C23.7812 119.779 28.1113 123.047 33.2031 123.047H60.5469C65.6387 123.047 69.9688 119.779 71.582 115.234H82.0312C85.2617 115.234 87.8906 112.605 87.8906 109.375V44.9219H117.188C120.418 44.9219 123.047 42.293 123.047 39.0625V7.8125C123.047 4.58203 120.418 1.95312 117.188 1.95312ZM70.3125 5.85938H117.188C118.266 5.85938 119.141 6.73438 119.141 7.8125V9.76562H68.3594V7.8125C68.3594 6.73438 69.2344 5.85938 70.3125 5.85938ZM21.4844 76.1719V56.6406H72.2656V76.1719H21.4844ZM25.3906 17.5781V25.3906H21.4844V17.5781H25.3906ZM21.4844 52.7344V44.9219H25.3906V52.7344H21.4844ZM21.4844 29.2969H25.3906V33.2031H21.4844V29.2969ZM21.4844 37.1094H25.3906V41.0156H21.4844V37.1094ZM72.2656 52.7344H68.3594V44.5625C68.9727 44.7812 69.625 44.9219 70.3125 44.9219H72.2656V52.7344ZM64.4531 52.7344H29.2969V17.5781H64.4531V39.0625V52.7344ZM68.3594 13.6719H119.141V17.5781H68.3594V13.6719ZM5.85938 9.76562H64.4531V13.6719H5.85938V9.76562ZM11.7188 111.328C10.6406 111.328 9.76562 110.453 9.76562 109.375V17.5781H17.5781V80.0781H21.4844V111.328H11.7188ZM60.5469 119.141H33.2031C28.8945 119.141 25.3906 115.637 25.3906 111.328V80.0781H68.3594V111.328C68.3594 115.637 64.8555 119.141 60.5469 119.141ZM83.9844 109.375C83.9844 110.453 83.1094 111.328 82.0312 111.328H72.2656V80.0781H76.1719V44.9219H83.9844V109.375ZM117.188 41.0156H70.3125C69.2344 41.0156 68.3594 40.1406 68.3594 39.0625V21.4844H119.141V39.0625C119.141 40.1406 118.266 41.0156 117.188 41.0156Z" fill="#1F70C1"/>
<path d="M109.375 25.3906C107.869 25.3906 106.508 25.9785 105.469 26.9141C104.43 25.9766 103.068 25.3906 101.562 25.3906C98.332 25.3906 95.7031 28.0195 95.7031 31.25C95.7031 34.4805 98.332 37.1094 101.562 37.1094C103.068 37.1094 104.43 36.5215 105.469 35.5859C106.508 36.5234 107.869 37.1094 109.375 37.1094C112.605 37.1094 115.234 34.4805 115.234 31.25C115.234 28.0195 112.605 25.3906 109.375 25.3906ZM101.562 33.2031C100.484 33.2031 99.6094 32.3281 99.6094 31.25C99.6094 30.1719 100.484 29.2969 101.562 29.2969C102.641 29.2969 103.516 30.1719 103.516 31.25C103.516 32.3281 102.641 33.2031 101.562 33.2031ZM109.375 33.2031C108.297 33.2031 107.422 32.3281 107.422 31.25C107.422 30.1719 108.297 29.2969 109.375 29.2969C110.453 29.2969 111.328 30.1719 111.328 31.25C111.328 32.3281 110.453 33.2031 109.375 33.2031Z" fill="#1F70C1"/>
<path d="M83.9844 25.3906H91.7969V29.2969H83.9844V25.3906Z" fill="#1F70C1"/>
<path d="M72.2656 25.3906H80.0781V29.2969H72.2656V25.3906Z" fill="#1F70C1"/>
<path d="M25.3906 60.5469H29.2969V64.4531H25.3906V60.5469Z" fill="#1F70C1"/>
<path d="M33.2031 60.5469H37.1094V64.4531H33.2031V60.5469Z" fill="#1F70C1"/>
<path d="M41.0156 60.5469H44.9219V64.4531H41.0156V60.5469Z" fill="#1F70C1"/>
<path d="M33.2031 68.3594H37.1094V72.2656H33.2031V68.3594Z" fill="#1F70C1"/>
<path d="M41.0156 68.3594H44.9219V72.2656H41.0156V68.3594Z" fill="#1F70C1"/>
<path d="M25.3906 68.3594H29.2969V72.2656H25.3906V68.3594Z" fill="#1F70C1"/>
<path d="M48.8281 72.2656H68.3594V60.5469H48.8281V72.2656ZM52.7344 64.4531H64.4531V68.3594H52.7344V64.4531Z" fill="#1F70C1"/>
<path d="M29.2969 87.8906H33.2031V95.7031H29.2969V87.8906Z" fill="#1F70C1"/>
<path d="M33.2031 99.6094H29.2969V111.328C29.2969 113.482 31.0488 115.234 33.2031 115.234H37.1094V111.328H33.2031V99.6094Z" fill="#1F70C1"/>
<path d="M72.2656 33.2031H91.7969V37.1094H72.2656V33.2031Z" fill="#1F70C1"/>
</svg>
